#N canvas 0 0 500 460 10;
#X obj 30 30 hsl 200 15 50 800 0 110 empty fund fundamental -2 -8 0 10 #fcfcfc #000000 #000000 0 1;
#X obj 30 70 hsl 200 15 0 1 0 0.5 empty p1 1st_partial -2 -8 0 10 #fcfcfc #000000 #000000 0 1;
#X obj 30 100 hsl 200 15 0 1 0 0.3 empty p2 2nd_partial -2 -8 0 10 #fcfcfc #000000 #000000 0 1;
#X obj 30 130 hsl 200 15 0 1 0 0.2 empty p3 3rd_partial -2 -8 0 10 #fcfcfc #000000 #000000 0 1;
#X obj 30 160 hsl 200 15 0 1 0 0.15 empty p4 4th_partial -2 -8 0 10 #fcfcfc #000000 #000000 0 1;
#X obj 30 200 hsl 200 15 0 1 0 0.2 empty amp master_amp -2 -8 0 10 #fcfcfc #000000 #000000 0 1;
#X obj 80 250 * 2;
#X obj 130 250 * 3;
#X obj 180 250 * 4;
#X obj 30 280 osc~;
#X obj 80 280 osc~;
#X obj 130 280 osc~;
#X obj 180 280 osc~;
#X obj 30 310 *~;
#X obj 80 310 *~;
#X obj 130 310 *~;
#X obj 180 310 *~;
#X obj 30 340 +~;
#X obj 130 340 +~;
#X obj 30 370 +~;
#X obj 30 400 *~ 0.25;
#X obj 30 430 *~;
#X obj 30 460 dac~;
#X connect 0 0 9 0;
#X connect 0 0 6 0;
#X connect 0 0 7 0;
#X connect 0 0 8 0;
#X connect 6 0 10 0;
#X connect 7 0 11 0;
#X connect 8 0 12 0;
#X connect 9 0 13 0;
#X connect 1 0 13 1;
#X connect 10 0 14 0;
#X connect 2 0 14 1;
#X connect 11 0 15 0;
#X connect 3 0 15 1;
#X connect 12 0 16 0;
#X connect 4 0 16 1;
#X connect 13 0 17 0;
#X connect 14 0 17 1;
#X connect 15 0 18 0;
#X connect 16 0 18 1;
#X connect 17 0 19 0;
#X connect 18 0 19 1;
#X connect 19 0 20 0;
#X connect 20 0 21 0;
#X connect 5 0 21 1;
#X connect 21 0 22 0;
#X connect 21 0 22 1;
