#N canvas 0 0 500 360 10;
#X obj 30 30 hsl 200 15 50 1000 0 220 empty cfreq cfreq -2 -8 0 10 #fcfcfc #000000 #000000 0 1;
#X obj 30 70 hsl 200 15 0.1 30 0 4 empty mfreq mfreq -2 -8 0 10 #fcfcfc #000000 #000000 0 1;
#X obj 30 110 hsl 200 15 0 1 0 0.2 empty amp amp -2 -8 0 10 #fcfcfc #000000 #000000 0 1;
#X obj 30 160 osc~;
#X obj 200 160 osc~;
#X obj 200 190 +~ 1;
#X obj 200 220 *~ 0.5;
#X obj 30 250 *~;
#X obj 30 280 *~;
#X obj 30 310 dac~;
#X connect 0 0 3 0;
#X connect 1 0 4 0;
#X connect 4 0 5 0;
#X connect 5 0 6 0;
#X connect 3 0 7 0;
#X connect 6 0 7 1;
#X connect 7 0 8 0;
#X connect 2 0 8 1;
#X connect 8 0 9 0;
#X connect 8 0 9 1;
