#N canvas 0 0 600 540 10;
#X obj 30 30 tgl 20 0 empty play play 0 -8 0 10 #fcfcfc #000000 #000000 0 1;
#X obj 30 70 hsl 200 15 50 600 0 150 empty tempo tempo_ms -2 -8 0 10 #fcfcfc #000000 #000000 0 1;
#X obj 30 110 hsl 200 15 24 72 0 48 empty root root_midi -2 -8 0 10 #fcfcfc #000000 #000000 0 1;
#X obj 30 150 hsl 200 15 0 1 0 0.25 empty amp amp -2 -8 0 10 #fcfcfc #000000 #000000 0 1;
#X obj 30 200 metro 150;
#X obj 30 230 f;
#X obj 80 230 + 1;
#X obj 80 260 mod 8;
#X obj 30 290 select 0 1 2 3 4 5 6 7;
#X msg 30 320 0;
#X msg 70 320 4;
#X msg 110 320 7;
#X msg 150 320 12;
#X msg 190 320 7;
#X msg 230 320 4;
#X msg 270 320 0;
#X msg 310 320 12;
#X obj 30 360 +;
#X obj 30 390 mtof;
#X obj 30 420 osc~;
#X msg 250 230 1 10 0 200 0;
#X obj 250 260 vline~;
#X obj 30 450 *~;
#X obj 30 480 *~;
#X obj 30 510 dac~;
#X connect 0 0 4 0;
#X connect 1 0 4 1;
#X connect 4 0 5 0;
#X connect 5 0 6 0;
#X connect 6 0 7 0;
#X connect 7 0 5 1;
#X connect 5 0 8 0;
#X connect 8 0 9 0;
#X connect 8 1 10 0;
#X connect 8 2 11 0;
#X connect 8 3 12 0;
#X connect 8 4 13 0;
#X connect 8 5 14 0;
#X connect 8 6 15 0;
#X connect 8 7 16 0;
#X connect 9 0 17 0;
#X connect 10 0 17 0;
#X connect 11 0 17 0;
#X connect 12 0 17 0;
#X connect 13 0 17 0;
#X connect 14 0 17 0;
#X connect 15 0 17 0;
#X connect 16 0 17 0;
#X connect 2 0 17 1;
#X connect 17 0 18 0;
#X connect 18 0 19 0;
#X connect 4 0 20 0;
#X connect 20 0 21 0;
#X connect 19 0 22 0;
#X connect 21 0 22 1;
#X connect 22 0 23 0;
#X connect 3 0 23 1;
#X connect 23 0 24 0;
#X connect 23 0 24 1;
