#N canvas 0 0 500 360 10;
#X obj 30 30 hsl 200 15 50 1000 0 220 empty freq freq -2 -8 0 10 #fcfcfc #000000 #000000 0 1;
#X obj 30 70 hsl 200 15 10 1500 0 250 empty ms delay_ms -2 -8 0 10 #fcfcfc #000000 #000000 0 1;
#X obj 30 110 hsl 200 15 0 0.95 0 0.6 empty fb feedback -2 -8 0 10 #fcfcfc #000000 #000000 0 1;
#X obj 30 150 hsl 200 15 0 1 0 0.2 empty amp amp -2 -8 0 10 #fcfcfc #000000 #000000 0 1;
#X obj 30 200 osc~;
#X obj 30 230 *~ 0.3;
#X obj 30 260 +~;
#X obj 30 290 delwrite~ ddl 2000;
#X obj 30 320 delread~ ddl 250;
#X obj 30 350 *~;
#X obj 30 380 dac~;
#X obj 200 320 *~;
#X connect 0 0 4 0;
#X connect 4 0 5 0;
#X connect 5 0 6 0;
#X connect 6 0 7 0;
#X connect 1 0 8 0;
#X connect 8 0 11 0;
#X connect 2 0 11 1;
#X connect 11 0 6 1;
#X connect 8 0 9 0;
#X connect 3 0 9 1;
#X connect 9 0 10 0;
#X connect 9 0 10 1;
