#N canvas 253 65 1325 820 12;
#X obj 64 469 phasor~;
#X obj 267 90 tgl 19 0 empty play play 0 -10 0 12 #fcfcfc #000000 #000000 0 1;
#X obj 368 744 bob~ 500 0.5;
#X obj 770 269 line~;
#X obj 770 226 pack f 50;
#X obj 761 132 hsl 162 19 60 8000 0 1 empty frequency frequency\ (hz) -2 -8 0 10 #dfdfdf #000000 #000000 7989 1;
#X obj 985 120 hsl 162 19 0 6 0 0 empty resonance resonance\ (>4\ self-oscillation) -2 -10 0 12 #fcfcfc #000000 #000000 0 1;
#X obj 288 458 phasor~;
#X msg 995 51 0.7;
#X obj 292 532 *~ 0.25;
#X obj 75 536 *~ 0.25;
#X obj 407 148 metro 400;
#X obj 345 247 random 6;
#X obj 532 398 osc~;
#X obj 5 347 random 16;
#X obj 3 394 expr~ ($v1 * 200)+200.;
#X obj 166 121 metro 200;
#X obj 169 195 nbx 5 17 0 1 0 0 empty freq1-prob freq1\ prob 0 -10 0 12 #fcfcfc #000000 #000000 0 256;
#X obj 135 32 loadbang;
#X obj 992 6 loadbang;
#X obj 778 11 loadbang;
#N canvas 817 45 450 382 toss 0;
#X obj 306 50 inlet;
#X obj 309 106 clip 0 1;
#X obj 114 16 inlet;
#X obj 54 320 outlet;
#X obj 111 126 expr ($f1 * 0.01);
#X obj 111 92 f;
#X obj 108 196 <= 0.5;
#X obj 111 63 random 101;
#X obj 107 228 route 1 0;
#X obj 161 319 outlet;
#X connect 0 0 1 0;
#X connect 1 0 6 1;
#X connect 2 0 7 0;
#X connect 4 0 6 0;
#X connect 5 0 4 0;
#X connect 6 0 8 0;
#X connect 7 0 5 0;
#X connect 8 0 3 0;
#X connect 8 1 9 0;
#X restore 105 258 pd toss;
#X obj 495 451 *~ 0.25;
#X obj 478 212 random 3;
#X obj 891 508 loadbang;
#X msg 891 535 \; wave1 sinesum 512 1 1 1 1 \, normalize \; wave2 cosinesum 512 0 1;
#X obj 369 570 *~ 0.25;
#N canvas 817 45 450 382 toss 0;
#X obj 306 50 inlet;
#X obj 309 106 clip 0 1;
#X obj 114 16 inlet;
#X obj 54 320 outlet;
#X obj 111 126 expr ($f1 * 0.01);
#X obj 111 92 f;
#X obj 108 196 <= 0.5;
#X obj 111 63 random 101;
#X obj 107 228 route 1 0;
#X obj 161 319 outlet;
#X connect 0 0 1 0;
#X connect 1 0 6 1;
#X connect 2 0 7 0;
#X connect 4 0 6 0;
#X connect 5 0 4 0;
#X connect 6 0 8 0;
#X connect 7 0 5 0;
#X connect 8 0 3 0;
#X connect 8 1 9 0;
#X restore 371 197 pd toss;
#X obj 543 98 nbx 5 17 0 1 0 0 empty freq2-prob freq2\ prob 0 -10 0 12 #fcfcfc #000000 #000000 0 256;
#X obj 468 10 loadbang;
#X obj 530 328 f;
#X obj 343 292 expr ($f1 * 100)+100;
#X obj 890 432 array define wave1;
#X obj 890 456 array define wave2;
#X obj 588 259 + 1;
#X obj 686 625 + 1;
#X obj 614 607 f 0;
#X obj 386 366 expr ($f1*$f2);
#X obj 375 441 vline~;
#N canvas 817 45 450 382 toss 0;
#X obj 306 50 inlet;
#X obj 309 106 clip 0 1;
#X obj 114 16 inlet;
#X obj 54 320 outlet;
#X obj 111 126 expr ($f1 * 0.01);
#X obj 111 92 f;
#X obj 108 196 <= 0.5;
#X obj 111 63 random 101;
#X obj 107 228 route 1 0;
#X obj 161 319 outlet;
#X connect 0 0 1 0;
#X connect 1 0 6 1;
#X connect 2 0 7 0;
#X connect 4 0 6 0;
#X connect 5 0 4 0;
#X connect 6 0 8 0;
#X connect 7 0 5 0;
#X connect 8 0 3 0;
#X connect 8 1 9 0;
#X restore 605 221 pd toss;
#X obj 366 518 tabosc4~ wave2;
#X obj 364 483 *~ 0.5;
#X msg 339 405 \$1 25;
#X obj 156 824 output~;
#X obj 325 827 output~;
#X obj 467 827 output~;
#X obj 171 638 bob~ 500 0.5;
#X obj 122 585 *~;
#X obj 186 587 *~;
#X obj 295 603 *~;
#X msg 653 267 1 \, 0 1000;
#X msg 257 152 1 \, 0 5000;
#X obj 745 372 *~ 2;
#X obj 974 345 *~ 0.25;
#X obj 991 260 line~;
#X obj 995 217 pack f 50;
#X obj 211 303 vline~;
#X obj 629 311 vline~;
#X obj 692 552 expr (sin($f1/100.0)*0.5)+0.5;
#X obj 210 440 cos~;
#X obj 484 633 expr~ ($v1+1.0);
#X obj 284 694 *~;
#X obj 215 377 phasor~ 6;
#X obj 1038 639 phasor~ 0.1;
#X obj 1045 673 cos~;
#X obj 1052 737 expr~ ($v1+1.0)*0.5;
#X obj 726 721 *~;
#X msg 608 768 level \$1;
#X obj 608 741 hsl 100 15 0 1 0 0 empty track3-level track3\ level -2 -8 0 10 #fcfcfc #000000 #000000 0 1;
#X msg 53 767 level \$1;
#X obj 53 740 hsl 100 15 0 1 0 0 empty track1-level track1\ level -2 -8 0 10 #fcfcfc #000000 #000000 0 1;
#X msg 47 694 level \$1;
#X obj 47 667 hsl 100 15 0 1 0 0 empty track2-level track2\ level -2 -8 0 10 #fcfcfc #000000 #000000 0 1;
#X msg 140 74 0.5;
#X msg 473 52 0.25;
#X obj 140 748 rev3~ 100 99 3000 20;
#X msg 772 58 4000;
#X connect 0 0 10 0;
#X connect 1 0 11 0;
#X connect 1 0 16 0;
#X connect 2 0 45 0;
#X connect 3 0 2 1;
#X connect 3 0 52 0;
#X connect 4 0 3 0;
#X connect 5 0 4 0;
#X connect 6 0 55 0;
#X connect 7 0 9 0;
#X connect 8 0 6 0;
#X connect 9 0 49 0;
#X connect 10 0 47 0;
#X connect 11 0 27 0;
#X connect 11 0 36 0;
#X connect 11 0 50 0;
#X connect 12 0 31 0;
#X connect 13 0 22 0;
#X connect 14 0 15 0;
#X connect 15 0 0 0;
#X connect 16 0 21 0;
#X connect 16 0 51 0;
#X connect 17 0 21 1;
#X connect 18 0 73 0;
#X connect 19 0 8 0;
#X connect 20 0 76 0;
#X connect 21 0 14 0;
#X connect 21 1 23 0;
#X connect 22 0 2 0;
#X connect 23 0 39 0;
#X connect 24 0 25 0;
#X connect 26 0 48 0;
#X connect 27 0 12 0;
#X connect 27 1 30 0;
#X connect 28 0 27 1;
#X connect 28 0 39 1;
#X connect 29 0 74 0;
#X connect 30 0 13 0;
#X connect 31 0 7 0;
#X connect 31 0 30 1;
#X connect 31 0 37 1;
#X connect 34 0 37 0;
#X connect 35 0 36 1;
#X connect 35 0 58 0;
#X connect 36 0 35 0;
#X connect 37 0 42 0;
#X connect 38 0 41 0;
#X connect 39 0 34 0;
#X connect 39 1 50 0;
#X connect 40 0 26 0;
#X connect 41 0 40 0;
#X connect 42 0 38 0;
#X connect 46 0 61 0;
#X connect 47 0 46 0;
#X connect 48 0 46 0;
#X connect 49 0 2 0;
#X connect 50 0 57 0;
#X connect 51 0 56 0;
#X connect 52 0 46 1;
#X connect 53 0 46 2;
#X connect 54 0 53 0;
#X connect 54 0 2 2;
#X connect 55 0 54 0;
#X connect 56 0 47 1;
#X connect 57 0 48 1;
#X connect 57 0 49 1;
#X connect 58 0 40 1;
#X connect 59 0 66 0;
#X connect 60 0 61 1;
#X connect 61 0 2 0;
#X connect 61 0 75 0;
#X connect 62 0 59 0;
#X connect 63 0 64 0;
#X connect 64 0 65 0;
#X connect 65 0 66 1;
#X connect 66 0 60 0;
#X connect 67 0 45 0;
#X connect 68 0 67 0;
#X connect 69 0 43 0;
#X connect 70 0 69 0;
#X connect 71 0 44 0;
#X connect 72 0 71 0;
#X connect 73 0 17 0;
#X connect 74 0 28 0;
#X connect 75 0 43 0;
#X connect 75 1 43 1;
#X connect 75 2 44 0;
#X connect 75 3 44 1;
#X connect 76 0 5 0;
