#N canvas 0 0 500 320 10;
#X obj 30 30 hsl 200 15 30 600 0 110 empty freq freq -2 -8 0 10 #fcfcfc #000000 #000000 0 1;
#X obj 30 70 hsl 200 15 0 30 0 3 empty spread spread_hz -2 -8 0 10 #fcfcfc #000000 #000000 0 1;
#X obj 30 110 hsl 200 15 0 1 0 0.2 empty amp amp -2 -8 0 10 #fcfcfc #000000 #000000 0 1;
#X obj 30 160 -;
#X obj 130 160 +;
#X obj 30 200 osc~;
#X obj 80 200 osc~;
#X obj 130 200 osc~;
#X obj 30 230 +~;
#X obj 30 260 +~;
#X obj 30 290 *~ 0.33;
#X obj 30 320 *~;
#X obj 30 350 dac~;
#X connect 0 0 3 0;
#X connect 1 0 3 1;
#X connect 0 0 6 0;
#X connect 0 0 4 0;
#X connect 1 0 4 1;
#X connect 3 0 5 0;
#X connect 4 0 7 0;
#X connect 5 0 8 0;
#X connect 6 0 8 1;
#X connect 8 0 9 0;
#X connect 7 0 9 1;
#X connect 9 0 10 0;
#X connect 10 0 11 0;
#X connect 2 0 11 1;
#X connect 11 0 12 0;
#X connect 11 0 12 1;
