#N canvas 0 0 500 420 10;
#X obj 30 30 tgl 20 0 empty play play 0 -8 0 10 #fcfcfc #000000 #000000 0 1;
#X obj 30 70 hsl 200 15 50 600 0 200 empty tempo tempo_ms -2 -8 0 10 #fcfcfc #000000 #000000 0 1;
#X obj 30 110 hsl 200 15 80 4000 0 400 empty hit hit_freq -2 -8 0 10 #fcfcfc #000000 #000000 0 1;
#X obj 30 150 hsl 200 15 1 50 0 8 empty q resonance -2 -8 0 10 #fcfcfc #000000 #000000 0 1;
#X obj 30 190 hsl 200 15 0 1 0 0.4 empty amp amp -2 -8 0 10 #fcfcfc #000000 #000000 0 1;
#X obj 30 240 metro 200;
#X msg 30 270 1 1 0 80 0;
#X obj 30 300 vline~;
#X obj 200 270 noise~;
#X obj 30 330 *~;
#X obj 30 360 bp~ 500 5;
#X obj 30 390 *~;
#X obj 30 420 dac~;
#X connect 0 0 5 0;
#X connect 1 0 5 1;
#X connect 5 0 6 0;
#X connect 6 0 7 0;
#X connect 8 0 9 0;
#X connect 7 0 9 1;
#X connect 9 0 10 0;
#X connect 2 0 10 1;
#X connect 3 0 10 2;
#X connect 10 0 11 0;
#X connect 4 0 11 1;
#X connect 11 0 12 0;
#X connect 11 0 12 1;
