#N canvas 0 0 500 480 10;
#X obj 30 30 hsl 200 15 50 1000 0 220 empty cfreq cfreq -2 -8 0 10 #fcfcfc #000000 #000000 0 1;
#X obj 30 70 hsl 200 15 0.25 8 0 2 empty ratio ratio -2 -8 0 10 #fcfcfc #000000 #000000 0 1;
#X obj 30 110 hsl 200 15 0 800 0 200 empty depth depth -2 -8 0 10 #fcfcfc #000000 #000000 0 1;
#X obj 30 150 hsl 200 15 0 1 0 0.2 empty amp amp -2 -8 0 10 #fcfcfc #000000 #000000 0 1;
#X obj 30 200 *;
#X obj 30 230 sig~;
#X obj 30 260 osc~;
#X obj 30 290 *~;
#X obj 220 230 sig~;
#X obj 30 320 +~;
#X obj 30 350 osc~;
#X obj 30 380 *~;
#X obj 30 410 dac~;
#X connect 0 0 4 0;
#X connect 1 0 4 1;
#X connect 4 0 5 0;
#X connect 5 0 6 0;
#X connect 6 0 7 0;
#X connect 2 0 7 1;
#X connect 0 0 8 0;
#X connect 7 0 9 0;
#X connect 8 0 9 1;
#X connect 9 0 10 0;
#X connect 10 0 11 0;
#X connect 3 0 11 1;
#X connect 11 0 12 0;
#X connect 11 0 12 1;
