#N canvas 87 89 1325 820 12;
#X obj 164 452 phasor~;
#X obj 267 90 tgl 19 0 empty play start\ sequencer 0 -10 0 12 #fcfcfc #000000 #000000 0 1;
#X obj 373 691 bob~ 500 0.5;
#X obj 771 225 line~;
#X obj 775 170 pack f 50;
#X obj 774 121 hsl 162 19 60 5000 0 1 empty cutoff frequency\ (hz) -2 -8 0 10 #dfdfdf #000000 #000000 10700 1;
#X obj 995 120 hsl 162 19 0 6 0 0 empty resonance resonance\ (>4\ self-oscillation) -2 -10 0 12 #fcfcfc #000000 #000000 0 1;
#X obj 288 458 phasor~;
#X msg 995 51 0.7;
#X obj 292 532 *~ 0.25;
#X obj 175 519 *~ 0.25;
#X obj 407 148 metro 400;
#X obj 345 247 random 6;
#X obj 532 398 osc~;
#X obj 105 330 random 16;
#X obj 103 377 expr~ ($v1 * 200)+200.;
#X obj 166 121 metro 200;
#X obj 169 195 nbx 5 17 0 1 0 0 empty density-a density\ a 0 -10 0 12 #fcfcfc #000000 #000000 0 256;
#X obj 135 32 loadbang;
#X obj 992 6 loadbang;
#X obj 778 11 loadbang;
#X msg 772 58 2000;
#N canvas 817 45 450 382 toss 0;
#X obj 306 50 inlet;
#X obj 309 106 clip 0 1;
#X obj 114 16 inlet;
#X obj 54 320 outlet;
#X obj 111 126 expr ($f1 * 0.01);
#X obj 111 92 f;
#X obj 108 196 <= 0.5;
#X obj 111 63 random 101;
#X obj 107 228 route 1 0;
#X obj 161 319 outlet;
#X connect 0 0 1 0;
#X connect 1 0 6 1;
#X connect 2 0 7 0;
#X connect 4 0 6 0;
#X connect 5 0 4 0;
#X connect 6 0 8 0;
#X connect 7 0 5 0;
#X connect 8 0 3 0;
#X connect 8 1 9 0;
#X restore 105 258 pd toss;
#X msg 140 74 0.25;
#X obj 495 451 *~ 0.25;
#X obj 478 212 random 3;
#X obj 885 697 loadbang;
#X msg 885 724 \; wave1 sinesum 512 1 1 1 1 \, normalize \; wave2 cosinesum 512 0 1;
#X obj 369 570 *~ 0.25;
#N canvas 817 45 450 382 toss 0;
#X obj 306 50 inlet;
#X obj 309 106 clip 0 1;
#X obj 114 16 inlet;
#X obj 54 320 outlet;
#X obj 111 126 expr ($f1 * 0.01);
#X obj 111 92 f;
#X obj 108 196 <= 0.5;
#X obj 111 63 random 101;
#X obj 107 228 route 1 0;
#X obj 161 319 outlet;
#X connect 0 0 1 0;
#X connect 1 0 6 1;
#X connect 2 0 7 0;
#X connect 4 0 6 0;
#X connect 5 0 4 0;
#X connect 6 0 8 0;
#X connect 7 0 5 0;
#X connect 8 0 3 0;
#X connect 8 1 9 0;
#X restore 371 197 pd toss;
#X obj 543 98 nbx 5 17 0 1 0 0 empty density-b density\ b 0 -10 0 12 #fcfcfc #000000 #000000 0 256;
#X obj 468 10 loadbang;
#X msg 473 52 0.5;
#X obj 530 328 f;
#X obj 343 292 expr ($f1 * 100)+100;
#X obj 884 621 array define wave1;
#X obj 884 645 array define wave2;
#X obj 588 259 + 1;
#X obj 645 601 + 1;
#X obj 598 573 f 0;
#X obj 386 366 expr ($f1*$f2);
#X obj 375 441 vline~;
#N canvas 817 45 450 382 toss 0;
#X obj 306 50 inlet;
#X obj 309 106 clip 0 1;
#X obj 114 16 inlet;
#X obj 54 320 outlet;
#X obj 111 126 expr ($f1 * 0.01);
#X obj 111 92 f;
#X obj 108 196 <= 0.5;
#X obj 111 63 random 101;
#X obj 107 228 route 1 0;
#X obj 161 319 outlet;
#X connect 0 0 1 0;
#X connect 1 0 6 1;
#X connect 2 0 7 0;
#X connect 4 0 6 0;
#X connect 5 0 4 0;
#X connect 6 0 8 0;
#X connect 7 0 5 0;
#X connect 8 0 3 0;
#X connect 8 1 9 0;
#X restore 605 221 pd toss;
#X obj 366 518 tabosc4~ wave2;
#X obj 364 483 *~ 0.5;
#X obj 512 677 expr (sin($f1/100.0)*0.5)+0.5;
#X msg 339 405 \$1 25;
#X obj 140 748 rev3~ 100 100 3000 20;
#X obj 991 171 pack f 50;
#X obj 986 226 line~;
#X obj 1017 314 phasor~ 0.25;
#X obj 859 441 expr~ ($v1+1.0)/2.;
#X obj 876 402 cos~;
#X obj 1006 494 cos~;
#X obj 1098 419 line~;
#X obj 1098 384 pack f 2000;
#X obj 1030 278 expr $f1 * 0.25;
#X obj 1097 351 expr $f1 / 16;
#X obj 1011 462 +~, f 12;
#X obj 900 522 expr~ $v1 + $v2;
#X obj 779 563 clip~ 0 1;
#X obj 754 606 *~;
#X obj 757 689 bob~ 500 0.5;
#X obj 33 634 hsl 162 19 0 0.25 0 0 empty empty reverb1-vol -2 -10 0 12 #dfdfdf #000000 #000000 0 1;
#X obj 30 667 pow 4;
#X msg 30 691 \$1 10;
#X obj 30 715 line~;
#X text 89 634 volume;
#X obj 96 797 *~;
#X obj 524 758 hsl 162 19 0 0.25 0 0 empty empty reverb2-vol -2 -10 0 12 #dfdfdf #000000 #000000 0 1;
#X obj 521 791 pow 4;
#X msg 521 815 \$1 10;
#X obj 521 839 line~;
#X text 580 758 volume;
#X obj 722 807 hsl 162 19 0 0.25 0 0 empty empty reverb3-vol -2 -10 0 12 #dfdfdf #000000 #000000 0 1;
#X obj 719 840 pow 4;
#X msg 719 864 \$1 10;
#X obj 719 888 line~;
#X text 778 807 volume;
#X obj 224 806 *~;
#X obj 155 818 *~;
#X obj 410 977 hsl 162 19 0 0.25 0 0 empty empty dry-vol -2 -10 0 12 #dfdfdf #000000 #000000 0 1;
#X obj 407 1010 pow 4;
#X msg 407 1034 \$1 10;
#X obj 407 1058 line~;
#X obj 282 840 *~;
#X obj 350 921 *~;
#X obj 93 922 dac~;
#X obj 200 917 dac~;
#X obj 280 978 dac~;
#X connect 0 0 10 0;
#X connect 1 0 11 0;
#X connect 1 0 16 0;
#X connect 2 0 47 0;
#X connect 2 0 86 0;
#X connect 3 0 61 0;
#X connect 3 0 2 1;
#X connect 4 0 3 0;
#X connect 5 0 4 0;
#X connect 6 0 48 0;
#X connect 7 0 9 0;
#X connect 8 0 6 0;
#X connect 9 0 62 0;
#X connect 10 0 2 0;
#X connect 11 0 29 0;
#X connect 11 0 39 0;
#X connect 12 0 34 0;
#X connect 13 0 24 0;
#X connect 14 0 15 0;
#X connect 14 0 57 0;
#X connect 15 0 0 0;
#X connect 16 0 22 0;
#X connect 17 0 22 1;
#X connect 17 0 56 0;
#X connect 18 0 23 0;
#X connect 19 0 8 0;
#X connect 20 0 21 0;
#X connect 21 0 5 0;
#X connect 22 0 14 0;
#X connect 22 1 25 0;
#X connect 23 0 17 0;
#X connect 24 0 62 0;
#X connect 25 0 42 0;
#X connect 26 0 27 0;
#X connect 28 0 2 0;
#X connect 29 0 12 0;
#X connect 29 1 33 0;
#X connect 30 0 29 1;
#X connect 30 0 42 1;
#X connect 31 0 32 0;
#X connect 32 0 30 0;
#X connect 33 0 13 0;
#X connect 34 0 7 0;
#X connect 34 0 33 1;
#X connect 34 0 40 1;
#X connect 37 0 40 0;
#X connect 38 0 39 1;
#X connect 38 0 45 0;
#X connect 39 0 38 0;
#X connect 40 0 46 0;
#X connect 41 0 44 0;
#X connect 42 0 37 0;
#X connect 43 0 28 0;
#X connect 44 0 43 0;
#X connect 45 0 43 1;
#X connect 46 0 41 0;
#X connect 47 0 68 0;
#X connect 47 1 80 0;
#X connect 47 2 79 0;
#X connect 47 3 85 0;
#X connect 48 0 49 0;
#X connect 49 0 2 2;
#X connect 49 0 62 2;
#X connect 50 0 52 0;
#X connect 50 0 58 0;
#X connect 51 0 59 0;
#X connect 52 0 51 0;
#X connect 53 0 59 1;
#X connect 54 0 58 1;
#X connect 55 0 54 0;
#X connect 56 0 50 0;
#X connect 57 0 55 0;
#X connect 58 0 53 0;
#X connect 59 0 60 0;
#X connect 60 0 61 1;
#X connect 61 0 62 1;
#X connect 62 0 47 1;
#X connect 63 0 64 0;
#X connect 64 0 65 0;
#X connect 65 0 66 0;
#X connect 66 0 68 1;
#X connect 68 0 87 0;
#X connect 69 0 70 0;
#X connect 69 0 85 1;
#X connect 70 0 71 0;
#X connect 71 0 72 0;
#X connect 72 0 79 1;
#X connect 74 0 75 0;
#X connect 75 0 76 0;
#X connect 76 0 77 0;
#X connect 77 0 80 1;
#X connect 77 0 85 1;
#X connect 79 0 87 1;
#X connect 80 0 88 1;
#X connect 81 0 82 0;
#X connect 82 0 83 0;
#X connect 83 0 84 0;
#X connect 84 0 86 1;
#X connect 85 0 88 0;
#X connect 86 0 89 0;
#X connect 86 0 89 1;
