#N canvas 355 107 1325 820 12;
#X obj 164 452 phasor~;
#X obj 267 90 tgl 19 0 empty empty start\ sequencer 0 -10 0 12 #fcfcfc #000000 #000000 0 1;
#X obj 363 646 bob~ 500 0.5;
#X obj 770 269 line~;
#X obj 770 226 pack f 50;
#X obj 762 125 hsl 162 19 60 5000 0 1 empty empty frequency\ (hz) -2 -8 0 10 #dfdfdf #000000 #000000 6123 1;
#X obj 987 273 sig~;
#X obj 995 120 hsl 162 19 0 6 0 0 empty empty resonance\ (>4\ self-oscillation) -2 -10 0 12 #fcfcfc #000000 #000000 0 1;
#X obj 288 458 phasor~;
#X msg 995 51 0.7;
#X obj 292 532 *~ 0.25;
#X obj 175 519 *~ 0.25;
#X obj 407 148 metro 400;
#X obj 345 247 random 6;
#X obj 532 398 osc~;
#X obj 105 330 random 16;
#X obj 103 377 expr~ ($v1 * 200)+200.;
#X obj 166 121 metro 200;
#X obj 169 195 nbx 5 17 0 1 0 0 empty empty freq1\ -\ prob 0 -10 0 12 #fcfcfc #000000 #000000 0 256;
#X obj 135 32 loadbang;
#X obj 992 6 loadbang;
#X obj 778 11 loadbang;
#X msg 772 58 2000;
#N canvas 817 45 450 382 toss 0;
#X obj 306 50 inlet;
#X obj 309 106 clip 0 1;
#X obj 114 16 inlet;
#X obj 54 320 outlet;
#X obj 111 126 expr ($f1 * 0.01);
#X obj 111 92 f;
#X obj 108 196 <= 0.5;
#X obj 111 63 random 101;
#X obj 107 228 route 1 0;
#X obj 161 319 outlet;
#X connect 0 0 1 0;
#X connect 1 0 6 1;
#X connect 2 0 7 0;
#X connect 4 0 6 0;
#X connect 5 0 4 0;
#X connect 6 0 8 0;
#X connect 7 0 5 0;
#X connect 8 0 3 0;
#X connect 8 1 9 0;
#X restore 105 258 pd toss;
#X msg 140 74 0.25;
#X obj 495 451 *~ 0.25;
#X obj 478 212 random 3;
#X obj 891 508 loadbang;
#X msg 891 535 \; wave1 sinesum 512 1 1 1 1 \, normalize \; wave2 cosinesum 512 0 1;
#X obj 369 570 *~ 0.25;
#N canvas 817 45 450 382 toss 0;
#X obj 306 50 inlet;
#X obj 309 106 clip 0 1;
#X obj 114 16 inlet;
#X obj 54 320 outlet;
#X obj 111 126 expr ($f1 * 0.01);
#X obj 111 92 f;
#X obj 108 196 <= 0.5;
#X obj 111 63 random 101;
#X obj 107 228 route 1 0;
#X obj 161 319 outlet;
#X connect 0 0 1 0;
#X connect 1 0 6 1;
#X connect 2 0 7 0;
#X connect 4 0 6 0;
#X connect 5 0 4 0;
#X connect 6 0 8 0;
#X connect 7 0 5 0;
#X connect 8 0 3 0;
#X connect 8 1 9 0;
#X restore 371 197 pd toss;
#X obj 543 98 nbx 5 17 0 1 0 0 empty empty freq1\ -\ prob 0 -10 0 12 #fcfcfc #000000 #000000 0 256;
#X obj 468 10 loadbang;
#X msg 473 52 0.5;
#X obj 530 328 f;
#X obj 343 292 expr ($f1 * 100)+100;
#X obj 890 432 array define wave1;
#X obj 890 456 array define wave2;
#X obj 588 259 + 1;
#X obj 686 625 + 1;
#X obj 614 607 f 0;
#X obj 386 366 expr ($f1*$f2);
#X obj 375 441 vline~;
#N canvas 817 45 450 382 toss 0;
#X obj 306 50 inlet;
#X obj 309 106 clip 0 1;
#X obj 114 16 inlet;
#X obj 54 320 outlet;
#X obj 111 126 expr ($f1 * 0.01);
#X obj 111 92 f;
#X obj 108 196 <= 0.5;
#X obj 111 63 random 101;
#X obj 107 228 route 1 0;
#X obj 161 319 outlet;
#X connect 0 0 1 0;
#X connect 1 0 6 1;
#X connect 2 0 7 0;
#X connect 4 0 6 0;
#X connect 5 0 4 0;
#X connect 6 0 8 0;
#X connect 7 0 5 0;
#X connect 8 0 3 0;
#X connect 8 1 9 0;
#X restore 605 221 pd toss;
#X obj 366 518 tabosc4~ wave2;
#X obj 364 483 *~ 0.5;
#X obj 557 704 expr (sin($f1/100.0)*0.5)+0.5;
#X msg 339 405 \$1 25;
#X obj 77 693 rev3~ 100 100 3000 20;
#X obj 412 852 dac~;
#X obj 30 728 *~ 0.25;
#X obj 101 728 *~ 0.25;
#X obj 169 732 *~ 0.25;
#X obj 240 732 *~ 0.25;
#X obj 444 757 *~ 0.75;
#X obj -28 421 hsl 162 19 0 1 0 0 empty empty reverb1 -2 -10 0 12 #fcfcfc #000000 #000000 0 1;
#X obj -19 461 hsl 162 19 0 1 0 0 empty empty reverb2 -2 -10 0 12 #fcfcfc #000000 #000000 0 1;
#X obj -8 515 hsl 162 19 0 1 0 0 empty empty reverb3 -2 -10 0 12 #fcfcfc #000000 #000000 0 1;
#X obj 1 584 hsl 162 19 0 1 0 0 empty empty reverb4 -2 -10 0 12 #fcfcfc #000000 #000000 0 1;
#X obj 558 762 hsl 162 19 0 1 0 0 empty empty dry\ volume -2 -10 0 12 #fcfcfc #000000 #000000 0 1;
#X connect 0 0 11 0;
#X connect 1 0 12 0;
#X connect 1 0 17 0;
#X connect 2 0 48 0;
#X connect 2 0 54 0;
#X connect 3 0 2 1;
#X connect 4 0 3 0;
#X connect 5 0 4 0;
#X connect 6 0 2 2;
#X connect 7 0 6 0;
#X connect 8 0 10 0;
#X connect 9 0 7 0;
#X connect 10 0 2 0;
#X connect 11 0 2 0;
#X connect 12 0 30 0;
#X connect 12 0 40 0;
#X connect 13 0 35 0;
#X connect 14 0 25 0;
#X connect 15 0 16 0;
#X connect 16 0 0 0;
#X connect 17 0 23 0;
#X connect 18 0 23 1;
#X connect 19 0 24 0;
#X connect 20 0 9 0;
#X connect 21 0 22 0;
#X connect 22 0 5 0;
#X connect 23 0 15 0;
#X connect 23 1 26 0;
#X connect 24 0 18 0;
#X connect 25 0 2 0;
#X connect 26 0 43 0;
#X connect 27 0 28 0;
#X connect 29 0 2 0;
#X connect 30 0 13 0;
#X connect 30 1 34 0;
#X connect 31 0 30 1;
#X connect 31 0 43 1;
#X connect 32 0 33 0;
#X connect 33 0 31 0;
#X connect 34 0 14 0;
#X connect 35 0 8 0;
#X connect 35 0 34 1;
#X connect 35 0 41 1;
#X connect 38 0 41 0;
#X connect 39 0 40 1;
#X connect 39 0 46 0;
#X connect 40 0 39 0;
#X connect 41 0 47 0;
#X connect 42 0 45 0;
#X connect 43 0 38 0;
#X connect 43 1 23 0;
#X connect 44 0 29 0;
#X connect 45 0 44 0;
#X connect 46 0 44 1;
#X connect 47 0 42 0;
#X connect 48 0 50 0;
#X connect 48 1 51 0;
#X connect 48 2 52 0;
#X connect 48 3 53 0;
#X connect 50 0 49 0;
#X connect 51 0 49 1;
#X connect 52 0 49 0;
#X connect 53 0 49 0;
#X connect 54 0 49 0;
#X connect 54 0 49 1;
#X connect 55 0 50 1;
#X connect 56 0 51 1;
#X connect 57 0 52 1;
#X connect 58 0 53 1;
#X connect 59 0 54 1;
