#N canvas 0 0 500 360 10;
#X obj 30 30 tgl 20 0 empty play play 0 -8 0 10 #fcfcfc #000000 #000000 0 1;
#X obj 30 70 hsl 200 15 50 1000 0 250 empty tempo tempo_ms -2 -8 0 10 #fcfcfc #000000 #000000 0 1;
#X obj 30 110 hsl 200 15 50 1500 0 440 empty pitch pitch -2 -8 0 10 #fcfcfc #000000 #000000 0 1;
#X obj 30 150 hsl 200 15 0 1 0 0.3 empty amp amp -2 -8 0 10 #fcfcfc #000000 #000000 0 1;
#X obj 30 200 metro 250;
#X msg 30 230 1 10 0 100 0;
#X obj 30 260 vline~;
#X obj 150 260 osc~ 440;
#X obj 30 290 *~;
#X obj 30 320 *~;
#X obj 30 350 dac~;
#X connect 0 0 4 0;
#X connect 1 0 4 1;
#X connect 4 0 5 0;
#X connect 5 0 6 0;
#X connect 2 0 7 0;
#X connect 7 0 8 0;
#X connect 6 0 8 1;
#X connect 8 0 9 0;
#X connect 3 0 9 1;
#X connect 9 0 10 0;
#X connect 9 0 10 1;
