#N canvas 0 0 500 460 10;
#X obj 30 30 tgl 20 0 empty play play 0 -8 0 10 #fcfcfc #000000 #000000 0 1;
#X obj 30 70 hsl 200 15 50 800 0 150 empty tempo tempo_ms -2 -8 0 10 #fcfcfc #000000 #000000 0 1;
#X obj 30 110 hsl 200 15 0 1 0 0.5 empty prob probability -2 -8 0 10 #fcfcfc #000000 #000000 0 1;
#X obj 30 150 hsl 200 15 50 1500 0 440 empty pitch pitch -2 -8 0 10 #fcfcfc #000000 #000000 0 1;
#X obj 30 190 hsl 200 15 0 1 0 0.25 empty amp amp -2 -8 0 10 #fcfcfc #000000 #000000 0 1;
#X obj 30 240 metro 150;
#X obj 30 270 random 100;
#X obj 100 270 * 100;
#X obj 30 300 <;
#X obj 30 330 select 1;
#X msg 30 360 1 10 0 200 0;
#X obj 30 390 vline~;
#X obj 200 360 osc~;
#X obj 30 420 *~;
#X obj 30 450 *~;
#X obj 30 480 dac~;
#X connect 0 0 5 0;
#X connect 1 0 5 1;
#X connect 5 0 6 0;
#X connect 6 0 8 0;
#X connect 2 0 7 0;
#X connect 7 0 8 1;
#X connect 8 0 9 0;
#X connect 9 0 10 0;
#X connect 10 0 11 0;
#X connect 3 0 12 0;
#X connect 12 0 13 0;
#X connect 11 0 13 1;
#X connect 13 0 14 0;
#X connect 4 0 14 1;
#X connect 14 0 15 0;
#X connect 14 0 15 1;
