#N canvas 0 0 500 460 10;
#X obj 30 30 tgl 20 0 empty play play 0 -8 0 10 #fcfcfc #000000 #000000 0 1;
#X obj 30 70 hsl 200 15 50 800 0 200 empty tempo tempo_ms -2 -8 0 10 #fcfcfc #000000 #000000 0 1;
#X obj 30 110 hsl 200 15 24 84 0 48 empty root root_midi -2 -8 0 10 #fcfcfc #000000 #000000 0 1;
#X obj 30 150 hsl 200 15 1 36 0 12 empty range range_semis -2 -8 0 10 #fcfcfc #000000 #000000 0 1;
#X obj 30 190 hsl 200 15 0 1 0 0.25 empty amp amp -2 -8 0 10 #fcfcfc #000000 #000000 0 1;
#X obj 30 240 metro 200;
#X obj 30 270 random 12;
#X obj 30 300 +;
#X obj 30 330 mtof;
#X obj 30 360 osc~;
#X msg 200 270 1 10 0 200 0;
#X obj 200 300 vline~;
#X obj 30 390 *~;
#X obj 30 420 *~;
#X obj 30 450 dac~;
#X connect 0 0 5 0;
#X connect 1 0 5 1;
#X connect 5 0 6 0;
#X connect 3 0 6 1;
#X connect 6 0 7 0;
#X connect 2 0 7 1;
#X connect 7 0 8 0;
#X connect 8 0 9 0;
#X connect 5 0 10 0;
#X connect 10 0 11 0;
#X connect 9 0 12 0;
#X connect 11 0 12 1;
#X connect 12 0 13 0;
#X connect 4 0 13 1;
#X connect 13 0 14 0;
#X connect 13 0 14 1;
