#N canvas 0 0 500 480 10;
#X obj 30 30 hsl 200 15 50 1000 0 220 empty freq freq -2 -8 0 10 #fcfcfc #000000 #000000 0 1;
#X obj 30 70 hsl 200 15 0 0.92 0 0.7 empty decay decay -2 -8 0 10 #fcfcfc #000000 #000000 0 1;
#X obj 30 110 hsl 200 15 0 1 0 0.2 empty amp amp -2 -8 0 10 #fcfcfc #000000 #000000 0 1;
#X obj 30 160 osc~;
#X obj 30 190 *~ 0.2;
#X obj 30 220 +~;
#X obj 30 250 delwrite~ rev 2000;
#X obj 30 280 delread~ rev 31;
#X obj 90 280 delread~ rev 53;
#X obj 150 280 delread~ rev 79;
#X obj 210 280 delread~ rev 113;
#X obj 30 310 +~;
#X obj 150 310 +~;
#X obj 30 340 +~;
#X obj 30 370 *~;
#X obj 30 400 *~ 0.25;
#X obj 30 430 *~;
#X obj 30 460 dac~;
#X connect 0 0 3 0;
#X connect 3 0 4 0;
#X connect 4 0 5 0;
#X connect 5 0 6 0;
#X connect 7 0 11 0;
#X connect 8 0 11 1;
#X connect 9 0 12 0;
#X connect 10 0 12 1;
#X connect 11 0 13 0;
#X connect 12 0 13 1;
#X connect 13 0 14 0;
#X connect 1 0 14 1;
#X connect 14 0 5 1;
#X connect 13 0 15 0;
#X connect 15 0 16 0;
#X connect 2 0 16 1;
#X connect 16 0 17 0;
#X connect 16 0 17 1;
